<svg width="64" height="64" viewBox="0 0 64 64" fill="none" xmlns="http://www.w3.org/2000/svg">
<g clip-path="url(#clip0_2016_241)">
<mask id="mask0_2016_241" style="mask-type:alpha" maskUnits="userSpaceOnUse" x="0" y="0" width="64" height="64">
<circle cx="31.681" cy="31.681" r="31.681" fill="#F578A5"/>
</mask>
<g mask="url(#mask0_2016_241)">
<circle cx="31.681" cy="31.681" r="31.681" fill="white"/>
<path d="M17.108 62.9028V63.5959H17.801H47.1863H47.8793V62.9028V50.5728C47.8793 49.4403 46.9817 48.5116 45.8498 48.473L19.2807 47.5672C18.0929 47.5267 17.108 48.4786 17.108 49.6671V62.9028Z" fill="#272727" stroke="#272727" stroke-width="1.38604"/>
<g clip-path="url(#clip1_2016_241)">
<path d="M23.2119 22.2461C29.6683 13.2691 26.8911 5.96215 26.8989 5.95348C26.762 5.58755 26.9477 5.18001 27.3136 5.04312C27.4982 4.97407 27.7033 4.9852 27.8793 5.07374C39.5319 10.6496 44.5463 17.8476 45.5065 24.3553C45.8882 26.8837 45.6496 29.467 44.8112 31.8828C44.0429 34.1118 42.7632 36.13 41.0746 37.7753C37.8264 40.9123 33.2871 42.3583 28.807 40.8923C27.661 40.5184 26.5796 39.9699 25.601 39.266C23.6379 37.8571 22.1487 35.8853 21.3307 33.6115C20.4627 31.1797 20.4351 28.5271 21.2524 26.0778C21.7037 24.7069 22.3647 23.4143 23.2119 22.2461Z" fill="#272727"/>
<path d="M27.0409 6.18501C26.7571 5.91656 26.7446 5.46884 27.013 5.18507C27.2815 4.9013 27.7292 4.88878 28.013 5.15723C28.0339 5.17698 28.0534 5.19797 28.0718 5.22013C28.0978 5.24353 33.7238 11.1408 34.5275 22.5388L34.5359 22.6457C34.7094 25.3097 34.6237 27.9843 34.2802 30.6318L38.1271 27.6836C38.4493 27.4627 38.8896 27.5448 39.1105 27.867C39.3105 28.1587 39.2643 28.5532 39.0025 28.7908L33.9749 32.632C32.8494 39.249 28.8817 48.6102 34.1341 54.4692C34.3871 54.767 34.3509 55.2134 34.0531 55.4663C33.7698 55.7071 33.3484 55.6874 33.0887 55.4212C26.7902 48.4006 31.3733 39.7034 32.6276 32.1824L32.6441 32.077C33.1542 29.0841 33.329 26.0436 33.1653 23.012L28.6434 19.6989C28.3209 19.4784 28.2382 19.0382 28.4587 18.7157C28.6791 18.3932 29.1193 18.3104 29.4418 18.5309C29.4552 18.54 29.4683 18.5496 29.4809 18.5597L32.9846 21.1391C31.8917 11.2587 27.0614 6.2087 27.0409 6.18501Z" fill="white"/>
</g>
</g>
</g>
<defs>
<clipPath id="clip0_2016_241">
<rect width="63.362" height="63.362" fill="white"/>
</clipPath>
<clipPath id="clip1_2016_241">
<rect width="38.8832" height="38.8832" fill="white" transform="translate(3.73462 31.0383) rotate(-48)"/>
</clipPath>
</defs>
</svg>
